<svg xmlns="http://www.w3.org/2000/svg" width="1024" height="1024" viewBox="0 0 1024 1024" version="1.1"><path d="M 519.693 224.972 C 517.049 226.005, 514.207 227.414, 513.377 228.102 C 512.547 228.791, 511.148 230.737, 510.268 232.427 C 509.388 234.117, 504.063 253.642, 498.436 275.815 C 492.808 297.988, 488.045 316.280, 487.852 316.462 C 487.658 316.645, 478.950 318.235, 468.500 319.995 C 458.050 321.756, 442.717 324.895, 434.427 326.971 C 426.137 329.047, 413.987 332.413, 407.427 334.452 C 400.867 336.490, 391.675 339.541, 387 341.233 C 382.325 342.924, 371.525 347.210, 363 350.757 C 354.475 354.304, 338.275 361.855, 327 367.536 C 315.725 373.217, 299.075 382.440, 290 388.030 C 280.925 393.621, 267.200 402.726, 259.500 408.264 C 251.800 413.802, 241 421.966, 235.500 426.405 C 230 430.844, 220.100 439.174, 213.500 444.915 C 206.900 450.656, 193.213 463.711, 183.085 473.927 C 172.957 484.142, 158.782 499.029, 151.585 507.009 C 144.388 514.989, 136.650 523.764, 134.388 526.509 C 132.127 529.254, 129.450 533.075, 128.440 535 C 127.322 537.129, 126.589 540.660, 126.568 544.014 L 126.533 549.528 129.190 554.014 C 130.651 556.481, 135.798 563, 140.627 568.500 C 145.457 574, 156.456 586.150, 165.070 595.500 C 173.684 604.850, 187.670 619.250, 196.149 627.500 C 204.629 635.750, 216.727 646.942, 223.034 652.372 C 229.340 657.801, 239.900 666.587, 246.500 671.894 C 253.100 677.202, 264.125 685.615, 271 690.590 C 277.875 695.564, 290.025 703.704, 298 708.679 C 305.975 713.654, 319.700 721.598, 328.500 726.333 C 337.300 731.067, 352.150 738.356, 361.500 742.530 C 370.850 746.704, 384.350 752.308, 391.500 754.984 C 398.650 757.659, 411.025 761.862, 419 764.322 C 426.975 766.782, 439.575 770.176, 447 771.863 C 454.425 773.551, 465.828 775.777, 472.340 776.812 L 484.181 778.692 484.570 777.596 C 484.784 776.993, 485.883 772.450, 487.012 767.500 C 488.142 762.550, 489.709 755.800, 490.495 752.500 C 491.282 749.200, 495.816 729.850, 500.573 709.500 C 505.329 689.150, 510.269 668, 511.552 662.500 C 512.834 657, 515.902 643.950, 518.368 633.500 C 520.835 623.050, 523.983 609.775, 525.363 604 C 526.744 598.225, 528.178 591.805, 528.551 589.733 C 528.963 587.445, 528.738 584.781, 527.977 582.945 C 527.289 581.283, 525.917 579.491, 524.929 578.962 C 523.940 578.433, 521.668 578, 519.880 578 C 518.091 578, 513.449 578.860, 509.564 579.911 C 505.679 580.962, 496.583 583.212, 489.351 584.911 C 482.118 586.610, 474.681 588, 472.823 588 C 470.965 588, 468.397 587.266, 467.117 586.369 C 465.836 585.472, 464.157 583.227, 463.385 581.379 L 461.981 578.019 467.029 555.760 C 469.806 543.517, 473.634 526.525, 475.536 518 C 477.438 509.475, 482.152 488.550, 486.012 471.500 C 489.872 454.450, 493.677 437.575, 494.467 434 C 495.256 430.425, 497.463 420.750, 499.371 412.500 C 501.279 404.250, 504.953 387.825, 507.536 376 C 510.119 364.175, 513.912 347.750, 515.965 339.500 C 518.018 331.250, 524.209 307.175, 529.722 286 C 535.236 264.825, 540.221 245.264, 540.799 242.531 L 541.851 237.561 539.445 232.476 L 537.039 227.390 533.134 225.195 C 530.985 223.988, 528.164 223.021, 526.864 223.047 C 525.564 223.073, 522.337 223.939, 519.693 224.972 M 573.766 322.241 C 572.884 325.134, 567.651 345.725, 562.137 368 C 556.622 390.275, 548.255 424.250, 543.543 443.500 C 538.830 462.750, 533.115 485.970, 530.842 495.101 C 528.153 505.900, 526.943 512.636, 527.380 514.376 C 527.749 515.847, 528.939 517.939, 530.025 519.025 C 531.111 520.111, 533.213 521, 534.696 521 C 536.179 521, 546.641 518.680, 557.946 515.845 C 569.933 512.839, 580.932 510.651, 584.335 510.595 L 590.169 510.500 592.585 513.306 L 595 516.112 595 520.474 C 595 522.874, 593.476 529.711, 591.613 535.668 C 589.751 541.626, 587.230 550.100, 586.012 554.500 C 584.793 558.900, 580.282 574.425, 575.987 589 C 571.692 603.575, 567.509 617.975, 566.693 621 C 565.877 624.025, 562.441 636.175, 559.058 648 C 555.675 659.825, 550.698 677.150, 547.997 686.500 C 545.297 695.850, 540.863 711.375, 538.143 721 C 535.424 730.625, 530.707 747.050, 527.661 757.500 C 524.615 767.950, 520.768 781.450, 519.112 787.500 C 517.456 793.550, 513.140 809.300, 509.520 822.500 C 505.901 835.700, 502.671 849.225, 502.343 852.555 L 501.747 858.610 503.271 861.558 C 504.109 863.178, 505.629 865.246, 506.648 866.153 C 507.666 867.060, 510.188 868.260, 512.250 868.820 L 516 869.839 519.738 868.807 C 521.794 868.239, 524.884 866.282, 526.605 864.457 L 529.733 861.140 532.982 849.320 C 534.768 842.819, 539.778 824.756, 544.115 809.180 C 548.452 793.604, 552 780.719, 552 780.547 C 552 780.374, 555.038 779.916, 558.750 779.529 C 562.462 779.141, 574.275 777.278, 585 775.388 C 595.725 773.498, 611.327 770.178, 619.671 768.010 C 628.016 765.842, 642.778 761.366, 652.476 758.064 C 662.174 754.762, 676.272 749.509, 683.805 746.390 C 691.337 743.272, 704.475 737.241, 713 732.989 C 721.525 728.736, 733 722.661, 738.500 719.488 C 744 716.314, 753.580 710.410, 759.788 706.367 C 765.997 702.324, 777.022 694.676, 784.288 689.373 C 791.555 684.069, 802.225 675.856, 808 671.120 C 813.775 666.385, 822.550 658.970, 827.500 654.643 C 832.450 650.315, 842.990 640.638, 850.922 633.137 C 858.854 625.637, 872.417 611.988, 881.061 602.808 C 889.706 593.627, 902.235 579.759, 908.904 571.989 C 915.573 564.220, 921.994 555.981, 923.173 553.682 L 925.317 549.500 925.317 544 L 925.317 538.500 923.125 534.224 C 921.919 531.872, 918.393 526.922, 915.290 523.224 C 912.187 519.526, 904.889 511.326, 899.074 505.001 C 893.258 498.677, 881.975 486.970, 874 478.986 C 866.025 471.002, 851.850 457.565, 842.500 449.127 C 833.150 440.689, 820.310 429.622, 813.966 424.533 C 807.623 419.443, 796.823 411.246, 789.966 406.316 C 783.110 401.386, 772.100 393.838, 765.500 389.542 C 758.900 385.247, 748.100 378.713, 741.500 375.023 C 734.900 371.333, 722.092 364.811, 713.039 360.531 C 703.985 356.250, 694.535 351.861, 692.039 350.778 C 689.542 349.694, 680.750 346.224, 672.500 343.065 C 664.250 339.907, 652.264 335.679, 645.864 333.668 C 639.464 331.658, 627.089 328.222, 618.364 326.033 C 609.639 323.844, 597.100 321.125, 590.500 319.991 C 583.900 318.857, 577.796 317.716, 576.935 317.456 L 575.371 316.983 573.766 322.241 M 613.008 394.868 C 613.012 395.215, 614.809 396.524, 617.001 397.776 C 619.193 399.028, 624.927 403.341, 629.743 407.362 C 634.559 411.382, 642.582 418.953, 647.572 424.187 C 652.561 429.421, 659.654 437.707, 663.334 442.601 C 667.327 447.913, 673.011 457.546, 677.435 466.500 C 681.511 474.750, 686.204 485.550, 687.864 490.500 C 689.524 495.450, 691.779 503.100, 692.875 507.500 C 693.972 511.900, 695.348 519.020, 695.934 523.322 C 696.520 527.625, 697 537.086, 697 544.349 C 697 551.611, 696.525 561.366, 695.945 566.026 C 695.365 570.687, 693.598 579.900, 692.018 586.500 C 690.439 593.100, 687.726 602.550, 685.991 607.500 C 684.255 612.450, 680.114 621.668, 676.789 627.985 C 673.464 634.302, 668.519 642.767, 665.800 646.796 C 663.082 650.825, 657.713 657.807, 653.870 662.311 C 650.028 666.815, 642.522 674.448, 637.192 679.273 C 631.861 684.098, 623.580 690.828, 618.788 694.227 C 613.996 697.627, 610.249 700.582, 610.460 700.793 C 610.671 701.005, 616.617 699.308, 623.672 697.023 C 630.727 694.739, 642.409 690.655, 649.632 687.949 C 656.855 685.243, 668.942 680.101, 676.492 676.522 C 684.042 672.943, 696.358 666.557, 703.860 662.331 C 711.362 658.105, 723.125 650.982, 730 646.501 C 736.875 642.020, 750.600 632.267, 760.500 624.827 C 770.400 617.387, 787.725 603.186, 799 593.269 C 810.275 583.352, 826.250 568.414, 834.500 560.073 L 849.500 544.908 829.500 525.204 C 818.499 514.367, 803.424 500.302, 796 493.948 C 788.575 487.595, 777.550 478.563, 771.500 473.879 C 765.450 469.194, 756.675 462.673, 752 459.387 C 747.325 456.101, 739.660 450.918, 734.966 447.869 C 730.272 444.821, 721.472 439.562, 715.410 436.184 C 709.348 432.806, 697.888 426.928, 689.944 423.122 C 682 419.316, 666.891 412.798, 656.369 408.637 C 645.847 404.476, 631.784 399.534, 625.119 397.654 C 618.453 395.773, 613.003 394.520, 613.008 394.868 M 435.500 395.713 C 434.400 395.978, 426.975 398.357, 419 401.001 C 411.025 403.644, 398.200 408.366, 390.500 411.494 C 382.800 414.622, 370.365 419.997, 362.867 423.440 C 355.369 426.882, 343.894 432.755, 337.367 436.491 C 330.840 440.227, 319.200 447.328, 311.500 452.272 C 303.800 457.217, 292.352 465.089, 286.059 469.767 C 279.767 474.445, 268.228 483.580, 260.418 490.068 C 252.608 496.556, 241.781 506.038, 236.359 511.139 C 230.936 516.239, 221.220 525.832, 214.767 532.456 C 208.314 539.080, 203.027 544.774, 203.017 545.110 C 203.008 545.445, 211.665 554.220, 222.256 564.610 C 232.847 574.999, 246.685 588.039, 253.006 593.587 C 259.328 599.134, 271.261 609.053, 279.524 615.627 C 287.787 622.202, 301.874 632.444, 310.829 638.387 C 319.784 644.329, 332.373 652.341, 338.805 656.189 C 345.237 660.038, 357.700 666.704, 366.500 671.002 C 375.300 675.300, 388.800 681.501, 396.500 684.781 C 404.200 688.062, 416.496 692.828, 423.825 695.373 C 431.154 697.918, 437.593 700, 438.135 700 C 438.676 700, 436.055 697.665, 432.310 694.811 C 428.564 691.957, 422.190 686.670, 418.144 683.061 C 414.099 679.452, 407.634 672.900, 403.778 668.500 C 399.922 664.100, 393.399 655.775, 389.282 650 C 385.165 644.225, 380.173 636.350, 378.190 632.500 C 376.207 628.650, 372.888 621.757, 370.814 617.183 C 368.741 612.609, 365.906 605.262, 364.514 600.855 C 363.122 596.449, 360.853 587.366, 359.472 580.672 L 356.961 568.500 356.356 553.500 C 355.984 544.280, 356.200 534.839, 356.917 529 C 357.558 523.775, 358.983 515.065, 360.082 509.643 C 361.182 504.222, 363.670 495.039, 365.611 489.236 C 367.553 483.432, 371.552 473.879, 374.497 468.006 C 377.442 462.133, 383.017 452.642, 386.886 446.914 C 390.754 441.186, 395.331 434.925, 397.058 433 C 398.784 431.075, 402.101 427.475, 404.428 425 C 406.754 422.525, 411.749 417.620, 415.527 414.099 C 419.305 410.579, 426.019 405.019, 430.448 401.745 C 434.877 398.470, 438.688 395.613, 438.917 395.395 C 439.146 395.178, 438.921 395.052, 438.417 395.116 C 437.913 395.180, 436.600 395.449, 435.500 395.713" stroke="none" fill="#053430" fill-rule="evenodd"/><path d="M 0 512.001 L 0 1024.002 512.250 1023.751 L 1024.500 1023.500 1024.751 511.750 L 1025.002 0 512.501 0 L 0 0 0 512.001 M 0.496 512.500 C 0.496 794.100, 0.610 909.151, 0.750 768.168 C 0.890 627.186, 0.890 396.786, 0.750 256.168 C 0.610 115.551, 0.496 230.900, 0.496 512.500 M 519.693 224.972 C 517.049 226.005, 514.207 227.414, 513.377 228.102 C 512.547 228.791, 511.148 230.737, 510.268 232.427 C 509.388 234.117, 504.063 253.642, 498.436 275.815 C 492.808 297.988, 488.045 316.280, 487.852 316.462 C 487.658 316.645, 478.950 318.235, 468.500 319.995 C 458.050 321.756, 442.717 324.895, 434.427 326.971 C 426.137 329.047, 413.987 332.413, 407.427 334.452 C 400.867 336.490, 391.675 339.541, 387 341.233 C 382.325 342.924, 371.525 347.210, 363 350.757 C 354.475 354.304, 338.275 361.855, 327 367.536 C 315.725 373.217, 299.075 382.440, 290 388.030 C 280.925 393.621, 267.200 402.726, 259.500 408.264 C 251.800 413.802, 241 421.966, 235.500 426.405 C 230 430.844, 220.100 439.174, 213.500 444.915 C 206.900 450.656, 193.213 463.711, 183.085 473.927 C 172.957 484.142, 158.782 499.029, 151.585 507.009 C 144.388 514.989, 136.650 523.764, 134.388 526.509 C 132.127 529.254, 129.450 533.075, 128.440 535 C 127.322 537.129, 126.589 540.660, 126.568 544.014 L 126.533 549.528 129.190 554.014 C 130.651 556.481, 135.798 563, 140.627 568.500 C 145.457 574, 156.456 586.150, 165.070 595.500 C 173.684 604.850, 187.670 619.250, 196.149 627.500 C 204.629 635.750, 216.727 646.942, 223.034 652.372 C 229.340 657.801, 239.900 666.587, 246.500 671.894 C 253.100 677.202, 264.125 685.615, 271 690.590 C 277.875 695.564, 290.025 703.704, 298 708.679 C 305.975 713.654, 319.700 721.598, 328.500 726.333 C 337.300 731.067, 352.150 738.356, 361.500 742.530 C 370.850 746.704, 384.350 752.308, 391.500 754.984 C 398.650 757.659, 411.025 761.862, 419 764.322 C 426.975 766.782, 439.575 770.176, 447 771.863 C 454.425 773.551, 465.828 775.777, 472.340 776.812 L 484.181 778.692 484.570 777.596 C 484.784 776.993, 485.883 772.450, 487.012 767.500 C 488.142 762.550, 489.709 755.800, 490.495 752.500 C 491.282 749.200, 495.816 729.850, 500.573 709.500 C 505.329 689.150, 510.269 668, 511.552 662.500 C 512.834 657, 515.902 643.950, 518.368 633.500 C 520.835 623.050, 523.983 609.775, 525.363 604 C 526.744 598.225, 528.178 591.805, 528.551 589.733 C 528.963 587.445, 528.738 584.781, 527.977 582.945 C 527.289 581.283, 525.917 579.491, 524.929 578.962 C 523.940 578.433, 521.668 578, 519.880 578 C 518.091 578, 513.449 578.860, 509.564 579.911 C 505.679 580.962, 496.583 583.212, 489.351 584.911 C 482.118 586.610, 474.681 588, 472.823 588 C 470.965 588, 468.397 587.266, 467.117 586.369 C 465.836 585.472, 464.157 583.227, 463.385 581.379 L 461.981 578.019 467.029 555.760 C 469.806 543.517, 473.634 526.525, 475.536 518 C 477.438 509.475, 482.152 488.550, 486.012 471.500 C 489.872 454.450, 493.677 437.575, 494.467 434 C 495.256 430.425, 497.463 420.750, 499.371 412.500 C 501.279 404.250, 504.953 387.825, 507.536 376 C 510.119 364.175, 513.912 347.750, 515.965 339.500 C 518.018 331.250, 524.209 307.175, 529.722 286 C 535.236 264.825, 540.221 245.264, 540.799 242.531 L 541.851 237.561 539.445 232.476 L 537.039 227.390 533.134 225.195 C 530.985 223.988, 528.164 223.021, 526.864 223.047 C 525.564 223.073, 522.337 223.939, 519.693 224.972 M 573.766 322.241 C 572.884 325.134, 567.651 345.725, 562.137 368 C 556.622 390.275, 548.255 424.250, 543.543 443.500 C 538.830 462.750, 533.115 485.970, 530.842 495.101 C 528.153 505.900, 526.943 512.636, 527.380 514.376 C 527.749 515.847, 528.939 517.939, 530.025 519.025 C 531.111 520.111, 533.213 521, 534.696 521 C 536.179 521, 546.641 518.680, 557.946 515.845 C 569.933 512.839, 580.932 510.651, 584.335 510.595 L 590.169 510.500 592.585 513.306 L 595 516.112 595 520.474 C 595 522.874, 593.476 529.711, 591.613 535.668 C 589.751 541.626, 587.230 550.100, 586.012 554.500 C 584.793 558.900, 580.282 574.425, 575.987 589 C 571.692 603.575, 567.509 617.975, 566.693 621 C 565.877 624.025, 562.441 636.175, 559.058 648 C 555.675 659.825, 550.698 677.150, 547.997 686.500 C 545.297 695.850, 540.863 711.375, 538.143 721 C 535.424 730.625, 530.707 747.050, 527.661 757.500 C 524.615 767.950, 520.768 781.450, 519.112 787.500 C 517.456 793.550, 513.140 809.300, 509.520 822.500 C 505.901 835.700, 502.671 849.225, 502.343 852.555 L 501.747 858.610 503.271 861.558 C 504.109 863.178, 505.629 865.246, 506.648 866.153 C 507.666 867.060, 510.188 868.260, 512.250 868.820 L 516 869.839 519.738 868.807 C 521.794 868.239, 524.884 866.282, 526.605 864.457 L 529.733 861.140 532.982 849.320 C 534.768 842.819, 539.778 824.756, 544.115 809.180 C 548.452 793.604, 552 780.719, 552 780.547 C 552 780.374, 555.038 779.916, 558.750 779.529 C 562.462 779.141, 574.275 777.278, 585 775.388 C 595.725 773.498, 611.327 770.178, 619.671 768.010 C 628.016 765.842, 642.778 761.366, 652.476 758.064 C 662.174 754.762, 676.272 749.509, 683.805 746.390 C 691.337 743.272, 704.475 737.241, 713 732.989 C 721.525 728.736, 733 722.661, 738.500 719.488 C 744 716.314, 753.580 710.410, 759.788 706.367 C 765.997 702.324, 777.022 694.676, 784.288 689.373 C 791.555 684.069, 802.225 675.856, 808 671.120 C 813.775 666.385, 822.550 658.970, 827.500 654.643 C 832.450 650.315, 842.990 640.638, 850.922 633.137 C 858.854 625.637, 872.417 611.988, 881.061 602.808 C 889.706 593.627, 902.235 579.759, 908.904 571.989 C 915.573 564.220, 921.994 555.981, 923.173 553.682 L 925.317 549.500 925.317 544 L 925.317 538.500 923.125 534.224 C 921.919 531.872, 918.393 526.922, 915.290 523.224 C 912.187 519.526, 904.889 511.326, 899.074 505.001 C 893.258 498.677, 881.975 486.970, 874 478.986 C 866.025 471.002, 851.850 457.565, 842.500 449.127 C 833.150 440.689, 820.310 429.622, 813.966 424.533 C 807.623 419.443, 796.823 411.246, 789.966 406.316 C 783.110 401.386, 772.100 393.838, 765.500 389.542 C 758.900 385.247, 748.100 378.713, 741.500 375.023 C 734.900 371.333, 722.092 364.811, 713.039 360.531 C 703.985 356.250, 694.535 351.861, 692.039 350.778 C 689.542 349.694, 680.750 346.224, 672.500 343.065 C 664.250 339.907, 652.264 335.679, 645.864 333.668 C 639.464 331.658, 627.089 328.222, 618.364 326.033 C 609.639 323.844, 597.100 321.125, 590.500 319.991 C 583.900 318.857, 577.796 317.716, 576.935 317.456 L 575.371 316.983 573.766 322.241 M 613.008 394.868 C 613.012 395.215, 614.809 396.524, 617.001 397.776 C 619.193 399.028, 624.927 403.341, 629.743 407.362 C 634.559 411.382, 642.582 418.953, 647.572 424.187 C 652.561 429.421, 659.654 437.707, 663.334 442.601 C 667.327 447.913, 673.011 457.546, 677.435 466.500 C 681.511 474.750, 686.204 485.550, 687.864 490.500 C 689.524 495.450, 691.779 503.100, 692.875 507.500 C 693.972 511.900, 695.348 519.020, 695.934 523.322 C 696.520 527.625, 697 537.086, 697 544.349 C 697 551.611, 696.525 561.366, 695.945 566.026 C 695.365 570.687, 693.598 579.900, 692.018 586.500 C 690.439 593.100, 687.726 602.550, 685.991 607.500 C 684.255 612.450, 680.114 621.668, 676.789 627.985 C 673.464 634.302, 668.519 642.767, 665.800 646.796 C 663.082 650.825, 657.713 657.807, 653.870 662.311 C 650.028 666.815, 642.522 674.448, 637.192 679.273 C 631.861 684.098, 623.580 690.828, 618.788 694.227 C 613.996 697.627, 610.249 700.582, 610.460 700.793 C 610.671 701.005, 616.617 699.308, 623.672 697.023 C 630.727 694.739, 642.409 690.655, 649.632 687.949 C 656.855 685.243, 668.942 680.101, 676.492 676.522 C 684.042 672.943, 696.358 666.557, 703.860 662.331 C 711.362 658.105, 723.125 650.982, 730 646.501 C 736.875 642.020, 750.600 632.267, 760.500 624.827 C 770.400 617.387, 787.725 603.186, 799 593.269 C 810.275 583.352, 826.250 568.414, 834.500 560.073 L 849.500 544.908 829.500 525.204 C 818.499 514.367, 803.424 500.302, 796 493.948 C 788.575 487.595, 777.550 478.563, 771.500 473.879 C 765.450 469.194, 756.675 462.673, 752 459.387 C 747.325 456.101, 739.660 450.918, 734.966 447.869 C 730.272 444.821, 721.472 439.562, 715.410 436.184 C 709.348 432.806, 697.888 426.928, 689.944 423.122 C 682 419.316, 666.891 412.798, 656.369 408.637 C 645.847 404.476, 631.784 399.534, 625.119 397.654 C 618.453 395.773, 613.003 394.520, 613.008 394.868 M 435.500 395.713 C 434.400 395.978, 426.975 398.357, 419 401.001 C 411.025 403.644, 398.200 408.366, 390.500 411.494 C 382.800 414.622, 370.365 419.997, 362.867 423.440 C 355.369 426.882, 343.894 432.755, 337.367 436.491 C 330.840 440.227, 319.200 447.328, 311.500 452.272 C 303.800 457.217, 292.352 465.089, 286.059 469.767 C 279.767 474.445, 268.228 483.580, 260.418 490.068 C 252.608 496.556, 241.781 506.038, 236.359 511.139 C 230.936 516.239, 221.220 525.832, 214.767 532.456 C 208.314 539.080, 203.027 544.774, 203.017 545.110 C 203.008 545.445, 211.665 554.220, 222.256 564.610 C 232.847 574.999, 246.685 588.039, 253.006 593.587 C 259.328 599.134, 271.261 609.053, 279.524 615.627 C 287.787 622.202, 301.874 632.444, 310.829 638.387 C 319.784 644.329, 332.373 652.341, 338.805 656.189 C 345.237 660.038, 357.700 666.704, 366.500 671.002 C 375.300 675.300, 388.800 681.501, 396.500 684.781 C 404.200 688.062, 416.496 692.828, 423.825 695.373 C 431.154 697.918, 437.593 700, 438.135 700 C 438.676 700, 436.055 697.665, 432.310 694.811 C 428.564 691.957, 422.190 686.670, 418.144 683.061 C 414.099 679.452, 407.634 672.900, 403.778 668.500 C 399.922 664.100, 393.399 655.775, 389.282 650 C 385.165 644.225, 380.173 636.350, 378.190 632.500 C 376.207 628.650, 372.888 621.757, 370.814 617.183 C 368.741 612.609, 365.906 605.262, 364.514 600.855 C 363.122 596.449, 360.853 587.366, 359.472 580.672 L 356.961 568.500 356.356 553.500 C 355.984 544.280, 356.200 534.839, 356.917 529 C 357.558 523.775, 358.983 515.065, 360.082 509.643 C 361.182 504.222, 363.670 495.039, 365.611 489.236 C 367.553 483.432, 371.552 473.879, 374.497 468.006 C 377.442 462.133, 383.017 452.642, 386.886 446.914 C 390.754 441.186, 395.331 434.925, 397.058 433 C 398.784 431.075, 402.101 427.475, 404.428 425 C 406.754 422.525, 411.749 417.620, 415.527 414.099 C 419.305 410.579, 426.019 405.019, 430.448 401.745 C 434.877 398.470, 438.688 395.613, 438.917 395.395 C 439.146 395.178, 438.921 395.052, 438.417 395.116 C 437.913 395.180, 436.600 395.449, 435.500 395.713" stroke="none" fill="#edede2" fill-rule="evenodd"/></svg>